<svg width="32" height="32" viewBox="0 0 32 32" fill="none" xmlns="http://www.w3.org/2000/svg">
  <rect width="32" height="32" rx="8" fill="url(#logo_grad)" />
  <path d="M10 9C10 8.44772 10.4477 8 11 8H17C20.3137 8 23 10.6863 23 14C23 17.3137 20.3137 20 17 20H14V23C14 23.5523 13.5523 24 13 24H11C10.4477 24 10 23.5523 10 23V9Z" fill="#0D0F11"/>
  <path d="M14 12C14 11.4477 14.4477 11 15 11H17C18.6569 11 20 12.3431 20 14C20 15.6569 18.6569 17 17 17H14V12Z" fill="url(#logo_grad)"/>
  <circle cx="17.5" cy="14" r="1.5" fill="#0D0F11" />
  <defs>
    <linearGradient id="logo_grad" x1="0" y1="0" x2="32" y2="32" gradientUnits="userSpaceOnUse">
      <stop stopColor="#00E59B" />
      <stop offset="1" stopColor="#00A06B" />
    </linearGradient>
  </defs>
</svg>